<?xml version="1.0" encoding="utf-8"?>
<!-- Generator: Adobe Illustrator 26.0.3, SVG Export Plug-In . SVG Version: 6.00 Build 0)  -->
<svg version="1.1" id="ill" xmlns="http://www.w3.org/2000/svg" xmlns:xlink="http://www.w3.org/1999/xlink" x="0px" y="0px"
	  style="enable-background:new 0 0 255.06 241.28;" xml:space="preserve">
	 <symbol id="diamond-icon-icon-box" viewBox="0 0 255.06 241.28">
<path d="M247.01,86.17l-44.43-71.65c-0.9-1.45-2.49-2.34-4.2-2.34H57.45c-1.7,0-3.28,0.87-4.18,2.31L8.07,86.14
	c-1.13,1.79-0.99,4.11,0.35,5.76l115.15,141.49c0.94,1.15,2.35,1.82,3.83,1.82c0,0,0,0,0,0c1.49,0,2.89-0.67,3.83-1.82L246.64,91.9
	C247.97,90.27,248.12,87.97,247.01,86.17z M160.29,94.41l-32.38,110.87L95.54,94.41H160.29z M97.25,84.52l30.65-52.76l30.65,52.76
	H97.25z M133.71,22.07h57.27l-24.63,56.2L133.71,22.07z M122.09,22.07L89.47,78.24L64.85,22.07H122.09z M81.43,84.52H20.78
	l35.78-56.73L81.43,84.52z M85.24,94.41l34.71,118.87L23.21,94.41H85.24z M170.59,94.41h61.25l-95.41,116.97L170.59,94.41z
	 M174.4,84.52l24.83-56.65l35.12,56.65H174.4z"/>
	 </symbol>
</svg>
