<?xml version="1.0" encoding="utf-8"?>
<!-- Generator: Adobe Illustrator 26.0.3, SVG Export Plug-In . SVG Version: 6.00 Build 0)  -->
<svg version="1.1" id="ill" xmlns="http://www.w3.org/2000/svg" xmlns:xlink="http://www.w3.org/1999/xlink" x="0px" y="0px"
	  style="enable-background:new 0 0 255.06 241.28;" xml:space="preserve">
	 <symbol id="diamond-icon" viewBox="0 0 255.06 241.28">
	<path d="M249.91,86.33l-44.43-71.65c-0.9-1.45-2.49-2.34-4.2-2.34H60.35c-1.7,0-3.28,0.87-4.18,2.31L10.98,86.29
	c-1.13,1.79-0.99,4.11,0.35,5.76l115.15,141.49c0.94,1.15,2.35,1.82,3.83,1.82c0,0,0,0,0,0c1.49,0,2.89-0.67,3.83-1.82l115.4-141.49
	C250.88,90.42,251.03,88.12,249.91,86.33z M163.19,94.56l-32.38,110.87L98.44,94.56H163.19z M100.16,84.67l30.65-52.76l30.65,52.76
	H100.16z M136.61,22.22h57.27l-24.63,56.2L136.61,22.22z M125,22.22L92.37,78.39L67.76,22.22H125z M84.33,84.67H23.69l35.78-56.73
	L84.33,84.67z M88.14,94.56l34.71,118.87L26.12,94.56H88.14z M173.49,94.56h61.25l-95.41,116.97L173.49,94.56z M177.3,84.67
	l24.83-56.65l35.12,56.65H177.3z"/>
	</symbol>
</svg>
